<?xml version="1.0" standalone="no"?>
        <!DOCTYPE svg PUBLIC "-//W3C//DTD SVG 1.1//EN" 
        "http://www.w3.org/Graphics/SVG/1.1/DTD/svg11.dtd"> <svg style="color: white" id="Layer_1" data-name="Layer 1" xmlns="http://www.w3.org/2000/svg" viewBox="0 0 28 28"><path d="M 22.675 0 h -14.675 c -5 0 -8 3 -8 8 v 12 c 0 5 3 8 8 8 h 4 v -9.294 h -3.128 v -3.622 h 3.128 v -2.671 c 0 -3.1 1.893 -4.788 4.659 -4.788 c 1.325 0 2.463 0.099 2.795 0.143 v 3.24 l -1.918 0.001 c -1.504 0 -1.795 0.715 -1.795 1.763 v 2.313 h 3.587 l -0.467 3.622 h -3.12 v 9.293 h 4.259 c 5 0 8 -3 8 -8 v -12 c -0 -5 -3 -8 -8 -8 z" fill-rule="evenodd" fill="white"></path></svg> 