<?xml version="1.0" standalone="no"?>
<!DOCTYPE svg PUBLIC "-//W3C//DTD SVG 20010904//EN"
 "http://www.w3.org/TR/2001/REC-SVG-20010904/DTD/svg10.dtd">
<svg version="1.0" xmlns="http://www.w3.org/2000/svg"
 width="1106.993686pt" height="625.000000pt" viewBox="0 0 1106.993686 625.000000"
 preserveAspectRatio="xMidYMid meet">
<metadata>
Created by potrace 1.12, written by Peter Selinger 2001-2015
</metadata>
<g transform="translate(-45.000000,635.000000) scale(0.100000,-0.100000)"
fill="#f5f5f5" stroke="none">
<path d="M1840 6335 c0 -11 -12 -15 -44 -15 -25 0 -48 -4 -51 -10 -3 -5 -15
-10 -26 -10 -11 0 -22 -7 -25 -15 -4 -9 -19 -15 -39 -15 -19 0 -37 -4 -40 -10
-3 -5 -26 -10 -50 -10 -29 0 -45 -5 -49 -15 -3 -9 -18 -15 -35 -15 -16 0 -33
-4 -36 -10 -3 -5 -21 -10 -40 -10 -20 0 -35 -6 -39 -15 -3 -10 -19 -15 -45
-15 -22 0 -43 -4 -46 -10 -3 -5 -22 -10 -41 -10 -22 0 -37 -6 -40 -15 -4 -8
-19 -15 -34 -15 -16 0 -32 -4 -35 -10 -3 -5 -20 -10 -36 -10 -17 0 -37 -7 -45
-15 -9 -8 -31 -15 -50 -15 -19 0 -42 -4 -52 -9 -9 -5 -25 -12 -35 -15 -34 -11
-6 -26 47 -26 35 0 58 5 66 15 9 11 35 15 106 15 56 0 94 4 94 10 0 6 30 10
70 10 54 0 72 4 76 15 5 11 23 15 73 15 37 0 71 4 77 10 5 5 57 10 116 11 77
2 109 7 112 16 4 9 27 13 76 13 40 0 70 4 70 10 0 6 31 10 74 10 56 0 75 4 80
15 4 11 22 15 74 15 37 0 72 4 78 10 5 5 43 10 84 12 75 3 103 20 43 26 -18 2
-33 7 -33 13 0 5 -27 9 -59 9 -43 0 -60 4 -65 15 -4 11 -21 15 -66 15 -33 0
-60 4 -60 10 0 5 -39 11 -87 12 -64 2 -87 6 -85 16 1 6 -5 12 -13 12 -8 0 -15
-7 -15 -15z"/>
<path d="M2514 6135 c-5 -11 -23 -15 -74 -15 -38 0 -72 -4 -75 -10 -3 -5 -35
-10 -69 -10 -44 0 -67 -5 -76 -15 -9 -11 -35 -15 -106 -15 -51 0 -96 -4 -99
-10 -3 -5 -37 -10 -75 -10 -51 0 -69 -4 -74 -15 -4 -12 -19 -15 -62 -13 -39 2
-58 -1 -61 -9 -3 -9 7 -13 31 -13 23 0 39 -5 42 -15 4 -10 20 -15 44 -15 22 0
42 -4 45 -10 3 -5 23 -10 45 -10 26 0 40 -5 44 -16 4 -11 15 -15 36 -12 18 3
31 0 34 -9 3 -8 22 -13 50 -13 31 0 48 -5 54 -16 7 -12 20 -15 50 -12 28 2 43
-1 46 -9 3 -7 21 -13 40 -13 22 0 36 -6 40 -16 4 -11 15 -15 36 -12 18 3 31 0
34 -9 4 -8 23 -13 56 -13 34 0 57 -6 67 -16 11 -10 26 -14 44 -10 18 3 29 0
33 -9 3 -9 18 -15 34 -15 16 0 35 -7 43 -16 8 -10 26 -14 53 -12 24 1 41 -2
44 -10 2 -7 22 -12 48 -12 30 0 46 -5 50 -14 4 -10 16 -14 34 -11 17 2 34 -3
41 -11 6 -8 23 -14 38 -14 15 0 32 -5 39 -12 7 -7 29 -11 50 -9 25 1 43 -3 51
-13 8 -10 29 -16 52 -16 21 0 41 -4 44 -10 3 -5 20 -10 36 -10 17 0 32 -6 35
-15 4 -10 21 -15 54 -15 29 0 50 -5 52 -12 3 -8 20 -11 46 -9 31 2 44 -2 48
-13 4 -10 18 -16 40 -16 20 0 37 -6 40 -14 3 -8 15 -11 29 -8 14 2 36 -3 50
-12 13 -9 40 -16 60 -16 19 0 35 -4 35 -10 0 -5 15 -10 34 -10 18 0 39 -7 46
-15 7 -9 29 -15 52 -15 22 0 41 -5 44 -13 3 -8 18 -11 46 -9 30 3 43 0 50 -12
6 -11 23 -16 53 -16 25 0 45 -4 45 -10 0 -5 11 -10 24 -10 13 0 26 -7 30 -15
4 -10 20 -15 51 -15 25 0 45 -4 45 -10 0 -5 22 -10 49 -10 34 0 51 -4 55 -15
3 -9 18 -15 40 -15 19 0 38 -4 41 -10 3 -5 24 -10 46 -10 26 0 42 -5 45 -15 4
-10 20 -15 49 -15 24 0 47 -4 50 -10 3 -5 19 -10 34 -10 16 0 34 -7 41 -15 7
-8 25 -15 41 -15 15 0 31 -4 34 -10 3 -5 26 -10 50 -10 29 0 45 -5 49 -15 4
-10 20 -15 50 -15 25 0 48 -4 51 -10 3 -5 20 -10 36 -10 17 0 32 -6 35 -15 4
-11 21 -15 55 -15 27 0 49 -4 49 -10 0 -5 17 -10 39 -10 22 0 44 -6 51 -15 7
-8 23 -15 36 -15 13 0 24 -4 24 -10 0 -5 20 -10 45 -10 31 0 47 -5 51 -15 4
-10 20 -15 49 -15 24 0 47 -4 50 -10 3 -5 23 -10 44 -10 22 0 44 -6 51 -15 7
-8 28 -15 46 -15 19 0 34 -4 34 -10 0 -5 20 -10 44 -10 26 0 48 -6 56 -15 7
-8 27 -15 46 -15 18 0 36 -4 39 -10 3 -5 24 -10 45 -10 26 0 42 -6 48 -16 7
-12 18 -15 36 -12 18 4 29 1 33 -8 3 -9 22 -14 53 -14 33 0 50 -5 54 -15 3
-10 19 -15 45 -15 22 0 43 -4 46 -10 3 -5 19 -10 34 -10 16 0 34 -7 41 -15 7
-9 29 -15 51 -15 22 0 39 -4 39 -10 0 -5 17 -10 39 -10 22 0 44 -6 51 -15 7
-9 29 -15 51 -15 21 0 41 -4 44 -10 3 -5 21 -10 40 -10 21 0 35 -6 39 -16 4
-11 17 -15 46 -13 22 2 45 -2 52 -9 7 -7 29 -12 49 -12 21 0 42 -7 49 -15 7
-9 19 -14 26 -11 7 3 18 -2 24 -10 8 -9 32 -14 66 -14 39 0 55 -4 62 -16 7
-12 18 -15 36 -12 18 4 29 1 33 -8 3 -8 19 -14 39 -14 20 0 37 -6 42 -16 7
-13 19 -16 50 -12 29 4 42 2 46 -8 4 -9 21 -14 51 -14 29 0 48 -5 51 -13 3 -9
16 -12 34 -9 21 3 32 -1 36 -12 4 -10 18 -16 38 -16 18 0 37 -5 44 -12 7 -7
30 -11 51 -9 27 2 40 -2 44 -13 5 -11 20 -16 51 -16 27 0 46 -5 49 -13 3 -9
16 -12 36 -9 22 3 33 0 37 -12 4 -11 18 -16 44 -16 22 0 42 -4 45 -10 3 -5 23
-10 44 -10 20 0 46 -7 57 -15 10 -8 33 -15 50 -15 18 0 34 -6 37 -13 3 -9 16
-12 36 -9 22 3 33 0 37 -12 4 -11 19 -16 49 -16 24 0 47 -4 50 -10 3 -5 26
-10 50 -10 29 0 45 -5 49 -15 3 -9 18 -15 35 -15 16 0 33 -4 36 -10 3 -5 26
-10 49 -10 27 0 48 -6 56 -15 8 -9 30 -15 56 -15 24 0 44 -4 44 -10 0 -5 15
-10 34 -10 21 0 36 -6 40 -15 3 -9 19 -15 41 -15 19 0 35 -4 35 -10 0 -5 20
-10 44 -10 26 0 48 -6 56 -15 7 -8 27 -15 46 -15 18 0 36 -4 39 -10 3 -5 23
-10 45 -10 24 0 40 -5 44 -15 4 -10 20 -15 50 -15 25 0 48 -4 51 -10 3 -5 20
-10 36 -10 17 0 32 -6 35 -15 4 -9 19 -15 40 -15 19 0 34 -4 34 -10 0 -5 22
-10 49 -10 34 0 51 -4 55 -15 4 -10 20 -15 51 -15 25 0 45 -4 45 -10 0 -5 16
-10 35 -10 22 0 38 -6 41 -15 4 -10 20 -15 49 -15 24 0 47 -4 50 -10 3 -5 21
-10 39 -10 19 0 39 -7 46 -15 7 -9 29 -15 51 -15 22 0 39 -4 39 -10 0 -5 15
-10 34 -10 21 0 36 -6 40 -15 4 -10 20 -15 50 -15 25 0 48 -4 51 -10 3 -5 23
-10 44 -10 22 0 44 -6 51 -15 7 -8 28 -15 46 -15 19 0 34 -4 34 -10 0 -5 17
-10 39 -10 22 0 44 -6 51 -15 7 -8 27 -15 46 -15 18 0 36 -5 39 -10 3 -5 26
-10 50 -10 30 0 45 -5 49 -16 4 -11 15 -15 36 -12 18 3 31 0 34 -9 3 -8 22
-13 49 -13 27 0 49 -6 57 -15 7 -9 29 -15 51 -15 21 0 41 -5 44 -10 3 -6 21
-10 40 -10 20 0 35 -6 39 -15 3 -9 19 -15 41 -15 19 0 35 -4 35 -10 0 -5 20
-10 45 -10 25 0 57 -7 70 -16 14 -9 36 -14 50 -12 14 3 26 0 29 -8 3 -8 20
-14 40 -14 21 0 36 -6 40 -15 4 -10 20 -15 51 -15 25 0 45 -4 45 -10 0 -5 15
-10 34 -10 18 0 39 -7 46 -15 7 -8 25 -15 41 -15 15 0 31 -4 34 -10 7 -12 85
-14 85 -2 0 12 -60 42 -86 42 -14 0 -27 6 -29 13 -3 6 -26 13 -53 15 -26 1
-48 7 -50 12 -2 6 -12 10 -22 10 -10 0 -22 5 -25 10 -3 6 -19 10 -34 10 -16 0
-34 7 -41 15 -7 8 -26 15 -42 15 -16 0 -31 6 -34 13 -3 9 -16 12 -34 9 -21 -3
-32 1 -36 12 -4 10 -18 16 -39 16 -19 0 -37 5 -40 10 -3 6 -19 10 -34 10 -16
0 -34 7 -41 15 -7 8 -25 15 -41 15 -15 0 -31 5 -34 10 -3 6 -26 10 -50 10 -29
0 -45 5 -49 15 -3 8 -14 15 -25 15 -11 0 -23 5 -26 10 -3 6 -23 10 -44 10 -22
0 -44 6 -51 15 -7 8 -25 15 -41 15 -15 0 -31 5 -34 10 -3 6 -20 10 -37 10 -18
0 -37 8 -44 18 -11 14 -15 15 -23 3 -7 -11 -13 -10 -32 8 -13 12 -36 21 -55
21 -19 0 -34 6 -38 15 -3 9 -18 15 -35 15 -16 0 -33 5 -36 10 -3 6 -21 10 -40
10 -20 0 -35 6 -39 15 -3 9 -18 15 -35 15 -16 0 -33 5 -36 10 -3 6 -21 10 -39
10 -19 0 -39 7 -46 15 -7 8 -27 15 -46 15 -18 0 -36 5 -39 10 -3 6 -17 10 -30
10 -12 0 -26 8 -29 17 -5 12 -10 13 -18 5 -7 -7 -17 -7 -29 -1 -11 5 -28 14
-39 19 -11 5 -28 10 -37 10 -10 0 -27 7 -37 15 -11 8 -32 15 -48 15 -15 0 -28
5 -28 10 0 6 -18 10 -39 10 -25 0 -41 5 -45 15 -3 9 -19 15 -41 15 -19 0 -35
5 -35 10 0 6 -16 10 -35 10 -22 0 -38 6 -41 15 -4 9 -19 15 -40 15 -19 0 -34
5 -34 10 0 6 -15 10 -34 10 -21 0 -36 6 -40 15 -3 9 -19 15 -41 15 -19 0 -35
5 -35 10 0 6 -15 10 -34 10 -21 0 -36 6 -40 15 -3 9 -18 15 -40 15 -19 0 -38
5 -41 10 -3 6 -24 10 -46 10 -27 0 -42 5 -46 16 -3 9 -13 14 -24 11 -10 -3
-23 1 -30 9 -6 8 -26 14 -44 14 -18 0 -38 7 -46 16 -8 10 -23 14 -42 11 -18
-2 -31 1 -34 10 -3 9 -24 13 -63 13 -49 0 -60 3 -76 25 -13 18 -28 25 -51 25
-19 0 -36 7 -41 16 -7 12 -18 15 -36 12 -18 -4 -29 -1 -33 8 -3 8 -20 14 -39
14 -22 0 -37 6 -41 15 -4 11 -14 14 -35 11 -19 -3 -31 0 -35 10 -3 8 -19 14
-38 14 -21 0 -35 6 -39 16 -4 12 -15 15 -37 12 -20 -3 -33 0 -36 9 -3 7 -20
13 -38 13 -19 0 -37 5 -40 10 -4 6 -15 8 -25 5 -10 -3 -21 -1 -25 5 -4 6 -13
9 -20 6 -8 -3 -19 2 -25 10 -7 8 -25 14 -40 14 -15 0 -33 7 -40 15 -7 8 -16
12 -22 9 -5 -3 -20 1 -33 10 -13 9 -37 16 -53 16 -16 0 -35 6 -41 14 -6 7 -21
11 -34 9 -14 -3 -29 2 -36 11 -8 9 -26 16 -41 16 -15 0 -33 6 -39 14 -6 7 -22
11 -36 8 -17 -3 -27 1 -31 12 -4 12 -19 16 -54 16 -33 0 -50 5 -54 15 -3 8
-12 12 -21 9 -8 -4 -17 1 -21 10 -4 10 -18 16 -39 16 -19 0 -37 5 -40 10 -3 6
-20 10 -36 10 -17 0 -32 6 -35 15 -4 9 -19 15 -39 15 -19 0 -37 5 -40 10 -3 6
-20 10 -36 10 -17 0 -32 6 -35 15 -4 10 -20 15 -49 15 -24 0 -47 5 -50 10 -3
6 -19 10 -34 10 -16 0 -34 7 -41 15 -7 8 -25 15 -41 15 -15 0 -31 5 -34 10 -3
6 -15 10 -26 10 -11 0 -22 7 -25 15 -4 10 -20 15 -49 15 -24 0 -47 5 -50 10
-3 6 -21 10 -40 10 -20 0 -35 6 -39 15 -3 9 -18 15 -35 15 -16 0 -33 5 -36 10
-3 6 -21 10 -40 10 -20 0 -35 6 -39 15 -3 9 -18 15 -35 15 -16 0 -33 5 -36 10
-3 6 -21 10 -40 10 -20 0 -35 6 -39 15 -3 9 -18 15 -35 15 -16 0 -33 5 -36 10
-3 6 -21 10 -40 10 -20 0 -35 6 -39 15 -3 9 -18 15 -40 15 -19 0 -38 5 -41 10
-3 6 -17 10 -29 10 -13 0 -29 7 -36 15 -8 9 -30 15 -56 15 -24 0 -44 5 -44 10
0 6 -15 10 -34 10 -21 0 -36 6 -40 15 -3 9 -18 15 -35 15 -16 0 -33 5 -36 10
-3 6 -21 10 -40 10 -20 0 -35 6 -39 15 -3 9 -19 15 -41 15 -19 0 -35 5 -35 10
0 6 -15 10 -34 10 -21 0 -36 6 -40 15 -3 10 -19 15 -45 15 -22 0 -43 5 -46 10
-3 6 -17 10 -29 10 -13 0 -29 7 -36 15 -7 8 -25 15 -41 15 -16 0 -29 5 -29 10
0 6 -15 10 -34 10 -21 0 -36 6 -40 15 -3 9 -18 15 -35 15 -16 0 -33 5 -36 10
-3 6 -21 10 -38 10 -18 0 -41 7 -51 15 -11 8 -32 15 -47 15 -15 0 -31 5 -34
10 -3 6 -15 10 -26 10 -11 0 -31 7 -44 16 -14 9 -36 14 -51 11 -16 -3 -28 0
-31 9 -3 8 -19 14 -39 14 -20 0 -37 6 -42 16 -7 12 -18 15 -36 12 -18 -4 -29
-1 -33 8 -3 8 -19 14 -38 14 -18 0 -38 7 -46 16 -8 9 -22 14 -37 11 -14 -3
-26 1 -29 9 -3 8 -19 14 -38 14 -21 0 -35 6 -39 16 -4 12 -15 15 -37 12 -20
-3 -33 0 -36 9 -3 7 -20 13 -38 13 -21 0 -35 6 -39 16 -4 12 -15 15 -37 12
-20 -3 -33 0 -36 9 -3 7 -20 13 -38 13 -19 0 -35 6 -38 14 -4 9 -18 13 -37 12
-17 -1 -39 4 -48 11 -9 7 -32 13 -50 13 -20 0 -35 6 -38 15 -4 9 -13 13 -23
10 -9 -3 -26 2 -37 10 -10 8 -34 15 -52 15 -19 0 -35 6 -38 15 -4 9 -15 12
-33 9 -18 -4 -32 0 -40 10 -8 9 -27 16 -43 16 -16 0 -31 6 -34 14 -3 8 -12 12
-20 9 -8 -3 -25 2 -39 11 -13 9 -38 16 -55 16 -17 0 -33 6 -36 13 -3 9 -16 12
-34 9 -21 -3 -32 1 -36 12 -4 10 -18 16 -40 16 -18 0 -37 6 -41 13 -4 6 -21
13 -38 14 -49 3 -68 8 -104 26 -19 9 -42 17 -51 17 -9 0 -25 7 -36 15 -10 8
-29 15 -41 15 -12 0 -25 5 -28 10 -3 6 -26 10 -50 10 -29 0 -45 5 -49 15 -3 9
-18 15 -35 15 -16 0 -33 5 -36 10 -3 6 -19 10 -34 10 -16 0 -34 7 -41 15 -10
12 -36 15 -117 15 -83 0 -105 -3 -109 -15z"/>
<path d="M827 6024 c-14 -14 -6 -24 19 -24 16 0 24 5 22 13 -5 14 -31 21 -41
11z"/>
<path d="M1488 5973 c-15 -4 -18 -16 -18 -80 l0 -75 30 4 c18 3 35 -1 41 -9 6
-7 28 -13 48 -13 20 0 45 -6 56 -14 20 -13 54 -22 128 -33 21 -3 41 -12 44
-20 4 -10 19 -14 51 -12 29 2 47 -1 50 -9 2 -7 22 -12 48 -12 28 0 47 -5 50
-13 3 -8 22 -14 46 -15 23 -1 47 -7 52 -12 6 -6 24 -10 42 -10 18 0 34 -6 36
-12 3 -8 19 -12 41 -10 20 2 51 -4 68 -12 18 -9 44 -16 59 -16 16 0 30 -6 33
-14 4 -9 15 -12 33 -8 18 3 29 0 36 -12 6 -11 23 -16 58 -16 27 0 52 -4 55
-10 3 -5 23 -10 45 -10 24 0 40 -5 44 -15 3 -9 18 -15 35 -15 16 0 33 -4 36
-10 3 -5 26 -10 51 -10 30 0 46 -5 50 -15 4 -10 20 -15 49 -15 24 0 47 -4 50
-10 3 -5 26 -10 51 -10 30 0 46 -5 50 -15 4 -9 19 -15 39 -15 18 0 35 -5 37
-12 3 -8 21 -11 51 -9 35 2 49 -1 53 -13 4 -11 19 -16 50 -16 24 0 44 -4 44
-10 0 -5 15 -10 34 -10 21 0 36 -6 40 -15 4 -11 20 -15 56 -15 27 0 50 -4 50
-10 0 -5 20 -10 44 -10 30 0 46 -5 50 -15 4 -10 20 -15 50 -15 25 0 48 -4 51
-10 3 -5 21 -10 39 -10 19 0 39 -7 46 -15 8 -10 30 -15 61 -15 27 0 49 -4 49
-10 0 -5 16 -10 35 -10 22 0 38 -6 41 -15 4 -9 19 -15 39 -15 19 0 37 -4 40
-10 3 -5 26 -10 49 -10 27 0 48 -6 56 -15 7 -9 29 -15 51 -15 21 0 41 -4 44
-10 3 -5 26 -10 50 -10 29 0 45 -5 49 -15 3 -9 18 -15 35 -15 16 0 33 -4 36
-10 3 -5 26 -10 51 -10 30 0 46 -5 50 -15 4 -10 20 -15 49 -15 24 0 47 -4 50
-10 3 -5 21 -10 40 -10 20 0 35 -6 39 -15 4 -10 20 -15 50 -15 25 0 48 -4 51
-10 3 -5 26 -10 50 -10 29 0 45 -5 49 -15 3 -10 19 -15 45 -15 22 0 43 -4 46
-10 3 -5 23 -10 44 -10 22 0 44 -6 51 -15 7 -9 29 -15 51 -15 21 0 41 -4 44
-10 3 -5 23 -10 45 -10 26 0 40 -5 44 -16 4 -12 15 -15 37 -12 20 3 33 0 36
-9 3 -9 24 -13 63 -13 44 0 59 -4 64 -16 4 -11 15 -15 36 -12 18 3 31 0 34 -9
3 -7 20 -13 40 -13 22 0 36 -6 40 -16 4 -11 17 -15 48 -13 26 2 43 -1 46 -9 2
-7 23 -12 52 -12 34 0 50 -4 54 -16 4 -11 17 -15 48 -13 26 2 43 -1 46 -9 2
-6 17 -12 33 -12 16 0 41 -7 54 -16 15 -10 40 -14 66 -13 27 2 44 -1 47 -9 2
-6 19 -12 37 -12 21 0 38 -6 43 -16 7 -12 18 -15 36 -12 18 4 29 1 33 -8 4
-10 23 -14 63 -14 43 0 59 -4 64 -16 4 -11 17 -15 46 -13 22 2 45 -2 52 -9 7
-7 20 -12 29 -12 9 0 20 -7 23 -16 4 -11 17 -15 46 -13 22 2 45 -2 52 -9 7 -7
32 -12 58 -12 25 0 53 -7 63 -14 9 -7 27 -11 40 -9 14 3 29 -2 36 -11 8 -9 25
-16 40 -16 15 0 32 -5 39 -12 7 -7 33 -11 62 -9 38 2 52 -1 56 -13 4 -10 18
-16 39 -16 18 0 38 -6 44 -14 6 -7 21 -11 34 -9 14 3 29 -2 36 -11 9 -10 29
-16 57 -16 23 0 46 -4 49 -10 3 -5 30 -10 60 -10 38 0 54 -4 59 -15 3 -9 19
-15 41 -15 19 0 35 -4 35 -10 0 -5 20 -10 45 -10 31 0 47 -5 51 -15 4 -10 20
-15 49 -15 24 0 47 -4 50 -10 3 -5 21 -10 40 -10 20 0 35 -6 39 -15 3 -9 19
-15 41 -15 19 0 35 -4 35 -10 0 -5 24 -10 54 -10 35 0 58 -5 66 -15 8 -9 30
-15 56 -15 24 0 44 -4 44 -10 0 -5 16 -10 35 -10 22 0 38 -6 41 -15 4 -10 20
-15 49 -15 24 0 47 -4 50 -10 3 -5 26 -10 51 -10 30 0 46 -5 50 -15 4 -9 19
-15 40 -15 19 0 34 -4 34 -10 0 -5 17 -10 39 -10 22 0 44 -6 51 -15 8 -9 30
-15 56 -15 24 0 44 -4 44 -10 0 -5 23 -10 50 -10 36 0 52 -4 56 -15 4 -9 19
-15 39 -15 19 0 37 -5 40 -10 3 -6 26 -10 50 -10 29 0 45 -5 49 -15 4 -10 20
-15 50 -15 25 0 48 -4 51 -10 3 -5 20 -10 36 -10 17 0 32 -6 35 -15 4 -9 19
-15 39 -15 19 0 37 -4 40 -10 3 -5 31 -10 61 -10 39 0 56 -4 60 -15 4 -9 19
-15 40 -15 19 0 34 -4 34 -10 0 -5 20 -10 44 -10 26 0 48 -6 56 -15 8 -9 30
-15 56 -15 24 0 44 -4 44 -10 0 -5 20 -10 44 -10 26 0 48 -6 56 -15 7 -8 25
-15 41 -15 15 0 31 -4 34 -10 3 -5 21 -10 40 -10 20 0 35 -6 39 -15 4 -11 21
-15 60 -15 30 0 58 -4 61 -10 3 -5 23 -10 44 -10 22 0 44 -6 51 -15 7 -8 23
-15 36 -15 12 0 26 -5 29 -10 3 -6 28 -10 54 -10 32 0 53 -5 62 -16 8 -10 26
-14 53 -12 24 1 41 -2 44 -10 2 -6 19 -12 37 -12 21 0 35 -6 39 -16 4 -12 15
-15 37 -12 20 3 33 0 36 -9 3 -8 23 -13 58 -13 36 0 57 -5 66 -16 8 -10 23
-14 42 -11 18 2 31 -1 34 -10 3 -8 21 -13 49 -13 29 0 46 -5 52 -16 7 -12 20
-15 50 -12 28 2 43 -1 46 -9 3 -8 23 -13 50 -13 31 0 48 -5 54 -16 7 -12 18
-15 36 -12 18 4 29 1 33 -8 3 -9 22 -14 53 -14 34 0 50 -4 54 -16 4 -11 17
-15 48 -13 26 2 43 -1 46 -9 2 -6 19 -12 38 -12 19 0 37 -6 40 -13 3 -8 18
-11 46 -9 30 3 43 0 50 -12 5 -9 19 -16 32 -16 13 0 27 -6 32 -12 5 -8 8 -663
6 -1496 l-2 -1483 -558 6 c-608 6 -739 9 -749 19 -3 3 -585 6 -1293 6 -817 0
-1290 4 -1296 10 -6 6 -557 11 -1504 13 -1050 2 -1537 7 -1635 15 -97 9 -554
13 -1490 16 -742 2 -1366 5 -1385 7 l-35 4 -3 -82 -3 -83 5006 0 5005 0 0
1538 c0 1528 0 1538 -20 1555 -12 10 -37 17 -60 17 -26 0 -43 5 -46 15 -4 10
-15 12 -35 8 -21 -4 -30 -1 -35 11 -4 12 -19 16 -54 16 -29 0 -50 5 -52 12 -3
8 -20 11 -46 9 -31 -2 -44 2 -48 13 -4 10 -18 16 -40 16 -20 0 -37 6 -40 13
-3 8 -16 12 -32 9 -18 -2 -33 2 -41 12 -9 10 -29 16 -57 16 -24 0 -44 5 -44
10 0 6 -20 10 -45 10 -31 0 -47 5 -51 15 -4 9 -19 15 -39 15 -19 0 -37 5 -40
10 -3 6 -26 10 -50 10 -29 0 -45 5 -49 15 -4 10 -20 15 -50 15 -27 0 -46 5
-49 13 -3 9 -16 12 -36 9 -22 -3 -33 0 -37 12 -4 11 -19 16 -49 16 -24 0 -47
5 -50 10 -3 6 -26 10 -51 10 -30 0 -46 5 -50 15 -4 9 -19 15 -39 15 -18 0 -35
6 -38 13 -3 9 -16 12 -36 9 -22 -3 -33 0 -37 12 -5 12 -20 16 -59 16 -30 0
-57 5 -60 10 -3 6 -21 10 -40 10 -20 0 -35 6 -39 15 -3 9 -19 15 -41 15 -19 0
-35 5 -35 10 0 6 -20 10 -45 10 -31 0 -47 5 -51 15 -4 11 -21 15 -55 15 -27 0
-49 5 -49 10 0 6 -15 10 -34 10 -21 0 -36 6 -40 15 -4 10 -20 15 -50 15 -25 0
-48 5 -51 10 -3 6 -26 10 -50 10 -29 0 -45 5 -49 15 -3 9 -18 15 -35 15 -16 0
-33 5 -36 10 -3 6 -23 10 -44 10 -22 0 -44 6 -51 15 -7 8 -28 15 -46 15 -19 0
-34 5 -34 10 0 6 -20 10 -44 10 -26 0 -48 6 -56 15 -7 8 -25 15 -41 15 -15 0
-31 5 -34 10 -3 6 -26 10 -51 10 -30 0 -46 5 -50 15 -4 10 -20 15 -49 15 -24
0 -47 5 -50 10 -3 6 -21 10 -40 10 -20 0 -35 6 -39 15 -3 9 -18 15 -35 15 -16
0 -33 4 -36 10 -3 5 -25 10 -49 10 -23 0 -51 7 -62 15 -10 8 -33 15 -51 15
-17 0 -35 5 -38 10 -3 5 -21 10 -40 10 -21 0 -35 6 -39 16 -4 11 -17 15 -48
13 -26 -2 -43 1 -46 9 -2 7 -22 12 -48 12 -30 0 -46 5 -50 15 -4 9 -19 15 -39
15 -19 0 -37 4 -40 10 -3 6 -26 10 -50 10 -30 0 -45 5 -49 16 -4 12 -15 15
-37 12 -20 -3 -33 0 -36 9 -3 8 -22 13 -49 13 -30 0 -46 5 -50 15 -4 10 -20
15 -49 15 -24 0 -47 5 -50 10 -3 6 -26 10 -50 10 -30 0 -47 5 -53 16 -7 12
-18 15 -36 12 -18 -4 -29 -1 -33 8 -3 8 -19 14 -38 14 -18 0 -38 7 -46 16 -9
11 -25 15 -51 12 -24 -2 -39 1 -42 9 -3 8 -23 13 -51 13 -31 0 -47 5 -51 15
-4 10 -20 15 -50 15 -24 0 -44 5 -44 10 0 6 -15 10 -34 10 -18 0 -39 6 -45 14
-7 8 -28 13 -53 12 -24 0 -42 4 -45 12 -3 6 -20 12 -38 12 -19 0 -37 4 -40 10
-3 6 -23 10 -44 10 -22 0 -44 6 -51 15 -7 8 -25 15 -41 15 -15 0 -31 5 -34 10
-3 6 -26 10 -51 10 -30 0 -46 5 -50 15 -4 9 -19 15 -39 15 -18 0 -35 6 -37 12
-3 8 -20 11 -44 10 -27 -2 -45 2 -53 12 -9 10 -30 16 -56 16 -26 0 -45 5 -47
12 -3 8 -18 12 -40 10 -22 -2 -39 2 -47 12 -8 9 -29 16 -48 16 -19 0 -36 6
-39 13 -3 9 -16 12 -34 9 -18 -2 -40 2 -55 12 -13 9 -38 16 -54 16 -16 0 -33
5 -36 10 -3 6 -21 10 -39 10 -19 0 -39 7 -46 15 -7 8 -27 15 -46 15 -18 0 -36
5 -39 10 -3 6 -26 10 -50 10 -29 0 -45 5 -49 15 -4 10 -20 15 -51 15 -29 0
-48 5 -51 13 -3 9 -16 12 -34 9 -21 -3 -32 1 -36 12 -4 12 -19 16 -55 16 -27
0 -49 5 -49 10 0 6 -15 10 -34 10 -21 0 -36 6 -40 15 -4 10 -20 15 -51 15 -25
0 -45 5 -45 10 0 6 -15 10 -33 10 -18 0 -42 7 -53 15 -10 8 -33 15 -51 15 -17
0 -35 5 -38 10 -3 6 -26 10 -51 10 -30 0 -46 5 -50 15 -4 9 -19 15 -40 15 -19
0 -34 5 -34 10 0 6 -20 10 -44 10 -26 0 -48 6 -56 15 -8 9 -30 15 -56 15 -24
0 -44 5 -44 10 0 6 -15 10 -34 10 -21 0 -36 6 -40 15 -4 10 -20 15 -51 15 -25
0 -45 5 -45 10 0 6 -16 10 -35 10 -22 0 -38 6 -41 15 -4 11 -21 15 -55 15 -27
0 -49 5 -49 10 0 6 -15 10 -34 10 -21 0 -36 6 -40 15 -4 10 -20 15 -50 15 -25
0 -48 5 -51 10 -3 6 -23 10 -44 10 -22 0 -44 6 -51 15 -7 8 -25 15 -41 15 -15
0 -31 5 -34 10 -3 6 -26 10 -51 10 -30 0 -46 5 -50 15 -4 10 -20 15 -49 15
-24 0 -47 5 -50 10 -3 6 -21 10 -40 10 -20 0 -35 6 -39 15 -3 10 -19 15 -45
15 -22 0 -43 5 -46 10 -3 6 -22 10 -41 10 -22 0 -37 6 -40 15 -4 10 -20 15
-49 15 -24 0 -47 5 -50 10 -3 6 -23 10 -44 10 -22 0 -44 6 -51 15 -7 8 -27 15
-46 15 -18 0 -36 5 -39 10 -3 6 -23 10 -44 10 -22 0 -44 6 -51 15 -7 8 -25 15
-41 15 -15 0 -31 5 -34 10 -3 6 -26 10 -50 10 -29 0 -45 5 -49 15 -3 10 -19
15 -45 15 -22 0 -43 5 -46 10 -3 6 -21 10 -40 10 -21 0 -37 6 -43 16 -6 12
-18 15 -36 12 -15 -3 -31 0 -37 8 -6 8 -29 14 -51 14 -21 0 -50 7 -63 16 -14
9 -36 14 -51 11 -16 -3 -28 0 -31 9 -3 8 -20 14 -39 14 -21 0 -37 6 -40 14 -4
10 -18 14 -47 12 -23 -2 -48 2 -54 7 -7 5 -24 7 -38 5 -17 -4 -33 2 -49 17
-17 16 -32 21 -50 18 -18 -4 -28 0 -32 11 -4 12 -19 16 -54 16 -31 0 -50 5
-53 13 -3 9 -16 12 -34 10 -19 -3 -34 1 -42 11 -8 10 -29 16 -53 16 -23 0 -41
5 -44 13 -3 9 -16 12 -34 9 -21 -3 -32 1 -36 12 -4 11 -19 16 -48 16 -23 0
-47 5 -54 12 -7 7 -30 11 -52 9 -29 -2 -42 2 -46 13 -4 10 -18 16 -36 16 -17
0 -36 6 -42 13 -6 8 -19 12 -28 10z"/>
<path d="M1290 5960 c0 -6 -30 -10 -70 -10 -55 0 -72 -4 -77 -16 -4 -12 -21
-15 -84 -13 -43 1 -84 -3 -91 -8 -22 -17 -168 -36 -293 -37 -44 -1 -73 -6 -78
-13 -5 -8 -31 -13 -67 -13 l-60 0 0 -63 c0 -36 5 -68 12 -75 15 -15 51 -15 66
0 7 7 37 10 74 9 44 -1 69 3 83 13 13 10 43 15 92 16 45 0 73 4 75 12 3 7 26
11 69 9 49 -2 69 2 78 13 11 13 36 16 126 16 78 0 115 4 117 12 3 7 26 11 66
9 l62 -2 0 75 0 76 -50 0 c-27 0 -50 -4 -50 -10z"/>
<path d="M1345 5741 c-6 -6 -52 -12 -103 -13 -62 -2 -93 -7 -97 -15 -3 -9 -26
-13 -65 -13 -33 0 -60 -4 -60 -10 0 -5 -28 -10 -62 -12 l-63 -3 0 -185 0 -185
28 -3 c15 -2 33 3 41 10 9 10 37 14 82 14 l69 -1 3 -57 c3 -57 15 -76 26 -40
3 9 4 41 2 70 l-4 52 34 0 c21 0 34 5 34 13 0 9 25 12 90 12 l90 0 0 -138 0
-139 -32 4 c-19 2 -33 -2 -35 -9 -3 -9 7 -13 31 -13 l36 0 0 -140 c0 -118 -2
-140 -15 -140 -8 0 -15 -6 -15 -14 0 -7 7 -19 15 -26 12 -10 15 -40 15 -146
l0 -134 -35 0 c-24 0 -35 -5 -35 -15 0 -8 9 -15 20 -15 12 0 32 -7 45 -16 20
-13 26 -14 30 -3 3 8 4 307 3 664 l-3 650 -30 3 c-17 2 -35 -2 -40 -7z m45
-173 c0 -163 -3 -168 -101 -168 -37 0 -71 -4 -74 -10 -3 -5 -46 -10 -94 -10
-67 0 -92 -4 -101 -15 -8 -9 -30 -15 -56 -15 l-44 0 0 133 c0 161 4 167 103
167 35 0 68 5 75 12 6 6 41 12 76 12 43 1 67 5 71 14 3 8 28 12 75 12 l70 0 0
-132z"/>
<path d="M1449 5728 c-5 -90 -8 -617 -4 -635 4 -15 10 -20 25 -16 22 6 26 18
10 28 -6 4 -10 62 -10 142 l0 135 24 -6 c27 -7 56 1 56 15 0 5 -10 9 -23 9
-46 0 -57 30 -57 154 0 97 3 115 18 129 23 21 48 22 55 3 3 -8 15 -12 31 -9
13 3 39 -2 57 -11 18 -9 48 -16 68 -16 20 -1 47 -7 61 -15 14 -8 42 -14 62
-15 20 0 40 -4 43 -10 3 -5 16 -10 29 -10 13 0 31 -9 41 -20 21 -24 35 -18 35
16 0 15 -7 27 -17 30 -10 3 -26 10 -35 15 -10 5 -40 9 -67 9 -31 0 -53 5 -61
15 -8 9 -30 15 -56 15 -24 0 -44 5 -44 10 0 6 -15 10 -34 10 -20 0 -36 6 -39
14 -4 10 -23 15 -64 15 -32 0 -59 4 -61 10 -7 21 -42 12 -43 -11z"/>
<path d="M1947 5543 c-3 -5 -1 -17 4 -28 7 -17 8 -17 8 8 1 27 -4 34 -12 20z"/>
<path d="M1946 5483 c-3 -3 -6 -37 -6 -75 0 -56 -4 -73 -21 -91 -19 -21 -21
-21 -33 -4 -9 11 -27 17 -55 17 -22 0 -41 5 -41 10 0 6 -20 10 -45 10 -31 0
-47 5 -51 15 -4 11 -21 15 -55 15 -27 0 -49 5 -49 10 0 6 -7 10 -15 10 -8 0
-15 -4 -15 -10 0 -5 7 -10 15 -10 8 0 15 -7 15 -15 0 -11 12 -15 44 -15 36 0
51 -6 77 -30 30 -27 32 -31 16 -42 -25 -19 -12 -61 17 -52 31 9 32 13 10 28
-19 15 -19 15 1 30 22 17 85 22 85 6 0 -5 15 -10 34 -10 19 0 37 -4 41 -10 3
-6 15 -5 30 2 24 11 25 15 25 109 0 90 -7 119 -24 102z"/>
<path d="M1717 5196 c-3 -8 -2 -29 3 -47 7 -22 6 -37 -1 -46 -8 -9 -8 -17 0
-26 14 -17 4 -27 -26 -27 -13 0 -23 -4 -23 -10 0 -6 26 -10 59 -10 40 0 63 -5
71 -15 7 -9 29 -15 51 -15 21 0 41 -4 44 -10 3 -5 15 -10 26 -10 19 0 19 -6
17 -137 l-3 -138 -44 0 c-26 0 -46 5 -48 13 -3 8 -26 12 -63 12 -42 0 -59 4
-64 15 -4 10 -20 15 -51 15 -33 0 -45 -4 -45 -15 0 -11 12 -15 44 -15 34 0 47
-5 62 -25 20 -27 40 -32 47 -12 4 10 7 10 18 0 7 -7 32 -13 55 -13 28 0 44 -5
48 -15 8 -22 43 -18 60 7 13 18 16 52 16 168 0 168 -8 190 -65 190 -19 0 -37
5 -40 10 -3 6 -24 10 -46 10 -48 0 -87 31 -63 51 17 14 18 31 2 47 -7 7 -13
22 -13 34 0 25 -20 35 -28 14z"/>
<path d="M1120 5152 c0 -53 -23 -72 -87 -72 -28 0 -64 -7 -80 -14 -15 -8 -36
-17 -46 -20 -17 -5 -18 -19 -15 -173 l3 -168 110 -2 110 -1 3 -59 c1 -32 5
-65 8 -73 17 -48 32 76 18 148 l-6 31 -80 3 c-63 2 -82 0 -88 -12 -7 -12 -11
-12 -29 5 -20 17 -21 27 -19 149 l3 131 65 3 c36 2 69 7 75 13 5 5 24 9 41 9
31 0 33 2 40 45 7 49 -1 95 -16 95 -6 0 -10 -17 -10 -38z"/>
<path d="M1170 5065 c0 -10 11 -15 35 -15 24 0 35 5 35 15 0 10 -11 15 -35 15
-24 0 -35 -5 -35 -15z"/>
<path d="M1567 5074 c-11 -12 3 -24 29 -24 15 0 24 6 24 15 0 15 -40 21 -53 9z"/>
<path d="M1446 5053 c-3 -3 -6 -64 -6 -134 0 -111 2 -129 18 -138 16 -10 16
-12 0 -24 -16 -12 -17 -61 -15 -628 l2 -614 67 -3 c43 -2 71 -8 78 -17 8 -10
31 -15 67 -15 34 0 60 -5 69 -14 17 -18 18 -33 2 -38 -8 -3 -11 -38 -9 -121
l2 -117 -50 0 c-27 0 -53 5 -56 10 -3 6 -30 10 -59 10 -65 0 -83 17 -88 80 -2
25 -7 44 -13 43 -15 -4 -19 -751 -4 -769 8 -10 8 -18 1 -27 -16 -19 -15 -2174
1 -2184 7 -5 71 -9 142 -11 72 -2 139 -7 150 -13 11 -5 65 -8 120 -7 l100 3 0
112 c0 139 -19 159 -23 26 l-3 -93 -218 0 c-247 0 -246 0 -246 77 0 23 3 43 8
43 4 0 7 7 7 15 0 8 -4 15 -10 15 -5 0 -9 27 -8 63 2 77 12 86 96 87 46 0 63
3 60 13 -3 7 -29 13 -71 15 -58 3 -67 5 -67 22 0 10 -4 22 -10 25 -6 4 -10 53
-10 116 l0 109 118 0 c107 0 121 -2 138 -21 15 -16 16 -22 4 -29 -10 -6 -13
-38 -14 -125 -1 -142 0 -143 130 -147 l89 -3 5 -30 c3 -16 10 -29 15 -28 15 3
18 42 4 59 -10 13 -10 17 0 24 31 18 -3 29 -92 28 -82 0 -92 2 -96 18 -2 11
-9 23 -17 27 -20 12 -19 140 1 157 8 7 15 20 15 29 0 14 14 16 97 16 l98 0 3
34 c4 43 -6 84 -18 76 -6 -3 -10 -20 -10 -37 0 -26 -3 -30 -21 -25 -12 3 -22
0 -26 -9 -6 -16 -34 -19 -49 -4 -6 6 -84 13 -178 16 -125 4 -172 8 -182 19
-17 17 -18 37 -2 53 8 8 8 15 -1 25 -8 10 -9 22 -2 40 7 18 7 27 -2 30 -9 3
-9 10 1 29 11 20 11 29 1 45 -26 42 -7 53 91 53 73 0 90 3 90 15 0 12 -16 15
-83 15 -72 0 -84 2 -95 21 -16 25 -15 178 2 198 8 11 8 15 -1 18 -17 6 -16 19
3 42 14 16 22 17 53 8 20 -5 68 -12 106 -16 l70 -6 2 -133 c2 -110 0 -132 -12
-132 -8 0 -15 -7 -15 -15 0 -20 44 -20 60 0 19 23 21 67 4 86 -11 12 -14 37
-12 95 l3 79 83 0 c61 0 86 -4 91 -14 12 -20 34 -9 39 20 2 13 6 57 9 97 4 61
2 72 -11 72 -13 0 -16 -12 -16 -55 0 -37 -5 -61 -17 -75 -20 -24 -71 -27 -79
-5 -5 12 -30 15 -140 15 -78 0 -134 4 -134 9 0 6 -21 11 -47 13 l-48 3 -1 45
c-1 25 3 48 9 52 8 5 8 10 0 20 -6 7 -11 46 -12 86 -1 72 -1 72 23 66 29 -7
69 4 61 17 -4 5 -16 9 -29 9 -44 0 -56 28 -56 128 0 52 4 94 10 97 8 5 7 11
-1 21 -9 11 -8 19 6 34 23 25 100 28 109 5 4 -11 21 -15 61 -15 55 0 85 -14
85 -39 0 -16 20 -13 26 4 5 11 23 15 74 15 38 0 72 -5 75 -11 5 -7 13 -4 26 7
10 9 16 21 13 26 -3 5 -1 15 6 23 15 18 9 157 -7 163 -10 3 -13 -16 -13 -73 0
-57 -4 -81 -16 -92 -19 -20 -72 -23 -86 -5 -7 8 -43 12 -112 12 -56 0 -106 4
-111 9 -6 6 -33 12 -62 14 -61 5 -93 28 -72 53 8 10 9 18 3 22 -6 4 -11 51
-12 105 l-2 97 114 0 c89 0 116 -3 126 -15 9 -11 34 -15 96 -15 45 0 86 -4 89
-10 9 -15 52 -12 58 4 8 21 -13 36 -53 36 -20 0 -40 4 -45 9 -6 5 -28 11 -50
13 -27 2 -40 8 -40 18 -1 8 -6 25 -13 37 -18 32 -16 112 3 119 8 4 15 11 15
18 -1 17 -40 60 -47 52 -4 -4 -7 -60 -8 -124 l0 -117 -58 -3 c-44 -2 -59 0
-63 12 -4 11 -20 16 -53 16 -26 0 -52 5 -59 12 -16 16 -16 172 1 199 10 17 10
23 0 26 -7 3 -13 11 -13 19 0 21 182 20 200 -1 8 -9 22 -12 41 -8 22 4 29 2
29 -11 0 -13 13 -16 83 -16 50 0 88 -5 95 -12 9 -9 16 -7 32 7 18 16 20 29 18
79 -3 68 -21 83 -26 22 -2 -22 -11 -45 -20 -53 -20 -15 -82 -17 -82 -3 0 6
-33 10 -79 10 -58 0 -82 4 -91 15 -9 11 -34 15 -93 15 -106 0 -106 1 -107 156
0 134 0 134 65 134 19 0 37 -4 40 -10 3 -6 51 -10 110 -10 70 0 105 -4 107
-12 4 -11 94 -16 104 -5 3 3 1 15 -6 26 -9 18 -19 21 -61 20 -27 -1 -51 0 -53
2 -3 2 -6 33 -8 67 -1 35 -8 68 -15 74 -18 14 -16 45 2 52 8 3 15 10 15 16 0
5 -7 10 -15 10 -20 0 -19 6 6 31 20 20 23 20 31 5 7 -12 23 -16 61 -16 29 0
58 -5 64 -11 17 -17 49 21 47 56 0 17 -2 54 -2 84 -2 67 -14 60 -17 -9 -2 -59
-33 -103 -58 -82 -7 6 -42 12 -76 14 -40 1 -65 7 -68 15 -4 9 -28 13 -78 13
-57 0 -74 3 -79 16 -4 11 -17 15 -45 13 -62 -5 -69 9 -70 145 -1 90 2 120 13
132 17 16 36 19 36 4 0 -6 27 -10 60 -10 33 0 60 4 60 10 0 6 -26 10 -59 10
-43 0 -60 4 -65 15 -3 8 -14 15 -25 15 -17 0 -20 8 -23 82 -2 46 -1 106 0 135
4 51 5 53 33 53 32 0 39 17 12 27 -39 15 -43 29 -43 152 0 67 3 121 8 121 4 0
13 9 20 21 12 18 11 23 -7 36 -19 13 -21 24 -21 139 0 133 -4 125 52 128 23 1
23 21 1 21 -10 0 -26 8 -35 18 -15 14 -18 36 -18 136 0 109 -6 142 -24 124z"/>
<path d="M2640 4780 c0 -28 3 -32 21 -27 12 3 22 0 26 -9 3 -8 19 -14 39 -14
32 0 34 2 34 35 0 30 -3 35 -22 35 -13 0 -40 3 -60 6 -37 7 -38 6 -38 -26z"/>
<path d="M1150 4770 c0 -6 17 -10 37 -10 43 0 41 5 -4 13 -19 4 -33 2 -33 -3z"/>
<path d="M1235 4771 c-7 -13 17 -24 40 -19 9 1 16 8 16 13 0 14 -48 19 -56 6z"/>
<path d="M1575 4770 c-3 -5 3 -10 14 -10 12 0 21 5 21 10 0 6 -6 10 -14 10 -8
0 -18 -4 -21 -10z"/>
<path d="M2840 4740 c0 -38 2 -40 29 -40 17 0 33 -4 36 -10 15 -24 35 -9 35
25 0 23 -5 35 -14 35 -7 0 -19 7 -26 15 -7 8 -23 15 -36 15 -21 0 -24 -5 -24
-40z"/>
<path d="M2665 4670 c-11 -17 -3 -125 11 -140 7 -8 14 -40 16 -70 3 -53 4 -54
33 -54 l30 0 3 118 c2 100 0 122 -14 137 -18 20 -69 26 -79 9z"/>
<path d="M1719 4656 c-2 -2 -3 -52 -3 -110 1 -96 0 -108 -18 -117 -27 -14 -17
-21 39 -26 26 -2 52 -8 57 -13 6 -6 33 -10 61 -10 64 0 88 -22 89 -80 1 -22 4
-40 7 -40 12 0 16 85 6 98 -8 10 -7 16 3 22 20 12 5 24 -32 26 -17 1 -33 7
-37 12 -4 6 -38 12 -76 14 l-70 3 -3 66 c-2 50 1 69 13 79 20 16 19 30 -4 58
-20 22 -24 25 -32 18z"/>
<path d="M2840 4506 c0 -118 1 -126 19 -126 11 0 23 -4 26 -10 12 -19 25 -10
25 19 0 16 7 34 15 41 13 10 15 32 13 104 l-3 91 -47 3 -48 3 0 -125z"/>
<path d="M1127 4544 c-4 -4 -7 -18 -7 -32 0 -39 -27 -51 -112 -52 -120 0 -120
-1 -116 -208 l3 -167 59 -3 c44 -2 63 1 77 14 18 16 20 16 37 1 10 -10 26 -17
35 -17 12 0 17 -8 17 -26 0 -47 25 -20 26 29 l2 47 -114 0 -114 0 0 133 c0
173 -5 167 158 167 66 0 123 4 127 9 6 11 -25 23 -46 19 -10 -2 -13 6 -11 29
3 34 -9 68 -21 57z"/>
<path d="M1270 4471 c0 -5 -9 -11 -20 -14 -31 -8 -24 -27 10 -27 25 0 30 4 30
25 0 14 -4 25 -10 25 -5 0 -10 -4 -10 -9z"/>
<path d="M4680 4454 c0 -21 4 -25 23 -22 14 2 23 11 25 26 3 18 -1 22 -22 22
-21 0 -26 -5 -26 -26z"/>
<path d="M1532 4454 c-28 -12 3 -24 64 -24 48 0 65 3 62 13 -5 12 -101 21
-126 11z"/>
<path d="M1397 4403 c-4 -3 -7 -53 -7 -110 0 -76 -4 -108 -14 -118 -9 -10 -44
-15 -107 -17 -59 -2 -92 -7 -89 -13 5 -11 14 -12 133 -14 l77 -1 0 -135 0
-135 -60 0 c-47 0 -60 -3 -60 -15 0 -11 12 -15 49 -15 27 0 51 -4 53 -9 2 -5
12 -11 23 -13 20 -3 20 3 23 300 1 166 -2 302 -6 302 -5 0 -12 -3 -15 -7z"/>
<path d="M4557 4373 c-11 -20 1 -58 19 -62 10 -2 23 -9 27 -17 4 -8 24 -14 43
-14 35 0 35 1 32 38 -3 35 -5 37 -37 38 -19 0 -36 5 -39 12 -4 13 -38 17 -45
5z"/>
<path d="M4732 4293 c3 -38 3 -38 45 -35 32 3 44 -1 51 -15 9 -14 13 -16 23
-6 10 10 9 18 -8 40 -11 16 -28 28 -38 28 -10 0 -20 6 -23 13 -2 6 -15 12 -28
12 -23 0 -25 -3 -22 -37z"/>
<path d="M1947 4244 c-4 -4 -7 -45 -7 -91 0 -63 3 -84 13 -81 8 3 13 30 15 76
3 69 -6 110 -21 96z"/>
<path d="M4580 4161 c0 -50 4 -72 16 -82 10 -8 14 -25 12 -53 -3 -41 -3 -41
35 -44 l37 -3 0 125 0 126 -50 0 -50 0 0 -69z"/>
<path d="M4737 4203 c-4 -3 -7 -60 -7 -125 l0 -118 29 0 c51 0 71 38 71 132 0
71 -3 82 -22 99 -23 18 -59 25 -71 12z"/>
<path d="M1580 4121 c0 -15 36 -23 84 -20 31 2 49 -2 61 -15 17 -16 17 -18 0
-30 -12 -9 -15 -18 -9 -27 5 -8 7 -22 6 -31 -2 -13 3 -18 18 -18 28 0 38 29
15 46 -18 13 -18 15 4 35 15 15 26 18 34 10 7 -5 37 -11 66 -13 31 -2 56 -8
58 -15 6 -15 39 -17 48 -4 6 11 -49 41 -75 41 -10 0 -20 7 -24 15 -4 11 -22
15 -70 15 -36 0 -68 5 -71 10 -8 13 -145 13 -145 1z"/>
<path d="M6554 4017 c-8 -21 2 -35 16 -21 5 5 6 15 0 24 -8 12 -10 12 -16 -3z"/>
<path d="M1719 3953 c-1 -5 0 -38 1 -75 2 -65 1 -67 -24 -70 -52 -6 -25 -23
41 -26 38 -2 72 -7 78 -13 5 -5 27 -9 50 -9 55 0 75 -24 75 -91 0 -36 4 -49
13 -47 14 5 22 82 11 107 -4 9 -8 23 -8 31 -1 9 -13 16 -29 18 -16 2 -31 10
-34 18 -4 10 -22 14 -64 14 -46 0 -60 4 -68 18 -7 13 -6 23 2 31 9 10 8 14 -5
22 -12 7 -18 22 -18 44 0 19 -4 35 -10 35 -5 0 -10 -3 -11 -7z"/>
<path d="M1120 3901 c0 -33 -3 -41 -19 -41 -10 0 -24 -7 -31 -15 -8 -10 -37
-15 -93 -17 l-82 -3 0 -180 0 -180 54 -3 c30 -2 59 2 64 7 15 15 39 14 76 -5
l32 -16 -2 -91 c-1 -57 -7 -103 -15 -119 -14 -26 -18 -28 -84 -28 -38 0 -72
-4 -75 -10 -3 -5 -15 -10 -25 -10 -28 0 -32 -28 -28 -196 l3 -149 33 -3 c37
-4 40 5 12 36 -18 19 -20 35 -20 149 l0 128 26 12 c18 8 32 9 45 3 23 -13 142
-13 154 -1 6 5 63 11 128 13 l117 3 0 -137 c0 -137 0 -138 -23 -138 -12 0 -28
-9 -35 -21 -15 -24 -9 -37 10 -21 9 7 18 7 31 -2 15 -11 17 -31 17 -145 l0
-132 -122 3 -123 3 3 40 c3 46 -12 79 -27 56 -5 -7 -6 -21 -4 -31 3 -10 0 -21
-6 -24 -6 -4 -11 -16 -11 -27 0 -17 -7 -19 -74 -19 -55 0 -75 -4 -79 -14 -3
-8 -16 -16 -29 -18 l-23 -3 0 -170 0 -170 95 -3 c70 -2 99 -7 112 -19 13 -12
15 -19 7 -29 -13 -15 -4 -34 16 -34 15 0 24 28 22 65 0 11 3 30 7 43 7 21 5
22 -58 22 -37 0 -75 -5 -85 -12 -15 -9 -26 -8 -55 6 l-37 17 3 132 3 132 155
3 c85 1 159 7 164 12 16 16 115 12 132 -4 11 -11 14 -45 14 -145 l0 -131 -37
-2 c-21 -1 -54 0 -73 1 -45 3 -100 -7 -100 -19 0 -6 45 -10 105 -10 l105 0 0
-133 c0 -172 3 -169 -141 -165 l-104 3 3 65 c2 68 -7 98 -28 85 -8 -5 -10 -20
-7 -41 4 -25 1 -36 -11 -43 -16 -9 -15 -11 3 -25 23 -18 22 -18 -65 -20 -53
-1 -65 -4 -68 -18 -5 -26 24 -29 232 -31 l186 -2 0 -137 0 -138 -80 0 c-44 0
-80 -4 -80 -9 0 -15 36 -23 84 -20 71 5 76 -7 76 -160 l0 -131 -126 0 -127 0
6 34 c5 34 -6 56 -30 56 -7 0 -10 -6 -7 -14 8 -21 -14 -56 -36 -56 -10 0 -22
-5 -25 -10 -5 -8 -11 -8 -20 0 -7 6 -39 10 -72 8 l-58 -3 0 -180 0 -180 98 -5
99 -5 12 -36 c8 -24 9 -44 3 -60 -5 -13 -9 -51 -10 -84 l-2 -60 -100 -5 -100
-5 -2 -177 c-1 -98 2 -180 5 -182 4 -2 122 -6 262 -8 l255 -3 3 1254 c1 808
-1 1258 -8 1266 -6 7 -6 15 0 21 14 14 9 893 -5 897 -6 1 -12 -45 -15 -118
l-5 -120 -90 -8 c-49 -4 -103 -5 -118 -2 -19 3 -30 0 -33 -10 -5 -12 -28 -15
-115 -15 l-109 0 0 135 0 135 34 0 c21 0 36 6 40 15 4 11 23 15 79 15 l74 0
-1 62 c-1 39 -5 63 -13 65 -9 3 -13 -8 -13 -36z m270 -524 c0 -172 2 -169
-141 -165 l-103 3 1 137 c0 75 4 141 7 147 5 7 50 11 122 11 l114 0 0 -133z
m0 -2218 c0 -108 -3 -133 -17 -147 -9 -9 -23 -17 -31 -17 -9 0 -17 -6 -19 -12
-3 -9 7 -13 31 -13 l36 0 0 -135 0 -135 -125 0 -125 0 2 133 c3 128 4 132 26
135 16 3 22 10 22 29 0 22 -2 24 -16 12 -12 -10 -22 -10 -50 0 -19 7 -65 12
-102 11 -37 -1 -75 -2 -84 -1 -16 1 -18 15 -18 136 l0 135 235 0 235 0 0 -131z
m-2 -623 c3 -153 -3 -166 -78 -166 -25 0 -52 6 -59 13 -14 14 -7 13 -193 15
l-138 2 0 135 0 135 233 -2 232 -3 3 -129z"/>
<path d="M1260 985 c0 -8 7 -15 15 -15 8 0 15 7 15 15 0 8 -7 15 -15 15 -8 0
-15 -7 -15 -15z"/>
<path d="M6450 3911 c0 -11 -4 -23 -10 -26 -25 -15 -5 -25 51 -25 57 0 60 1
57 23 -2 14 -11 23 -25 25 -13 2 -23 8 -23 13 0 5 -11 9 -25 9 -18 0 -25 -5
-25 -19z"/>
<path d="M6600 3855 c0 -22 4 -25 35 -25 19 0 35 -4 35 -10 0 -5 9 -10 20 -10
24 0 27 18 5 26 -11 5 -13 10 -5 19 15 18 2 25 -47 25 -39 0 -43 -2 -43 -25z"/>
<path d="M1160 3820 c0 -5 18 -10 40 -10 22 0 40 5 40 10 0 6 -18 10 -40 10
-22 0 -40 -4 -40 -10z"/>
<path d="M4566 3810 c-17 -18 -17 -20 -2 -26 17 -7 22 -39 7 -48 -16 -10 -41
5 -39 23 2 13 -7 17 -49 19 -32 2 -53 -1 -53 -7 0 -6 -8 -11 -17 -11 -10 0
-29 -12 -42 -25 -13 -14 -29 -25 -37 -25 -21 0 -74 -57 -74 -80 0 -11 -4 -20
-9 -20 -12 0 -41 -57 -41 -80 0 -10 -7 -20 -15 -24 -9 -3 -15 -19 -15 -41 0
-19 -4 -35 -10 -35 -6 0 -10 -322 -10 -886 0 -487 -3 -890 -6 -895 -3 -5 -14
-9 -25 -9 -15 0 -19 -7 -19 -35 l0 -35 84 0 c65 0 85 -3 90 -15 4 -13 34 -15
180 -15 106 0 177 -4 181 -10 4 -6 55 -10 118 -10 83 -1 117 -4 131 -15 15
-11 48 -15 128 -15 l108 0 0 30 c0 23 -6 33 -25 42 l-25 11 0 719 c0 472 3
718 10 718 6 0 10 11 10 25 0 14 -4 25 -10 25 -6 0 -10 35 -10 85 0 69 -3 87
-16 92 -11 4 -15 17 -13 44 2 21 -2 44 -9 51 -7 7 -12 20 -12 30 0 10 -7 21
-15 24 -9 4 -15 19 -15 36 0 20 -9 39 -26 54 -14 13 -23 28 -20 33 3 4 -8 21
-24 36 -16 15 -27 32 -24 37 7 11 -113 128 -131 128 -7 0 -22 11 -33 25 -11
14 -29 25 -40 25 -11 0 -22 9 -25 21 -3 11 -15 23 -26 26 -12 3 -21 9 -21 14
0 16 -45 8 -64 -11z m0 -175 c10 -14 28 -25 40 -25 12 0 24 -7 28 -15 3 -8 12
-15 21 -15 9 0 18 7 21 15 4 9 19 15 40 15 22 0 37 -6 40 -15 4 -8 14 -15 23
-15 9 0 29 -16 44 -35 15 -19 34 -35 42 -35 8 0 15 -8 15 -18 0 -10 17 -36 37
-57 21 -22 37 -46 35 -53 -2 -7 4 -15 13 -18 10 -4 15 -20 15 -49 0 -24 6 -48
14 -54 7 -6 11 -22 8 -37 -3 -16 1 -29 12 -37 13 -9 17 -24 14 -56 l-3 -44
-44 0 c-25 0 -47 5 -49 11 -2 8 -30 12 -73 12 -47 0 -78 5 -94 16 -16 10 -39
15 -65 12 -26 -2 -41 1 -44 9 -4 9 -28 13 -75 13 -53 0 -70 4 -75 16 -5 12
-23 15 -102 13 -60 -1 -100 3 -107 10 -6 6 -24 11 -39 11 l-28 0 0 79 c0 58 4
82 15 91 8 7 15 21 15 31 0 10 5 21 10 24 6 3 10 15 10 26 0 10 5 19 10 19 6
0 13 8 17 18 12 35 55 82 74 82 10 0 19 4 19 9 0 12 58 41 82 41 10 0 21 7 24
15 9 23 39 18 60 -10z m-186 -560 c9 -11 32 -15 80 -15 44 0 70 -4 72 -12 3
-8 24 -11 61 -9 44 2 58 -1 63 -13 5 -12 22 -16 74 -16 38 0 72 -4 75 -10 3
-5 35 -10 71 -10 114 0 104 70 104 -730 l0 -690 -64 0 c-36 0 -68 5 -71 10 -4
6 -66 10 -154 10 -120 0 -151 3 -161 15 -10 12 -36 15 -113 15 -79 0 -104 3
-119 17 -17 15 -18 51 -18 728 0 391 3 715 7 718 12 13 81 7 93 -8z"/>
<path d="M4335 2978 c-3 -7 -4 -294 -3 -638 2 -501 6 -624 16 -622 7 1 26 -5
42 -13 21 -11 61 -15 143 -15 62 0 117 -4 123 -9 13 -13 244 -19 244 -6 0 6 0
279 0 608 0 508 -2 600 -14 613 -10 9 -36 14 -76 14 -42 0 -66 5 -77 16 -12
12 -36 15 -106 13 -61 -1 -92 2 -95 10 -2 6 -27 11 -62 11 -42 0 -59 4 -64 15
-7 18 -65 20 -71 3z"/>
<path d="M6454 3783 c4 -16 9 -59 13 -97 6 -73 28 -110 61 -104 14 3 17 18 20
95 2 82 0 95 -18 113 -11 11 -33 20 -51 20 -29 0 -31 -2 -25 -27z"/>
<path d="M6612 3768 c-8 -8 -12 -47 -12 -110 0 -96 1 -98 23 -98 29 0 47 18
47 47 0 13 6 26 13 29 9 3 15 24 16 60 1 44 -2 55 -16 60 -10 3 -26 10 -35 15
-22 11 -22 11 -36 -3z"/>
<path d="M8416 3583 c-11 -11 -6 -23 9 -23 8 0 15 4 15 9 0 13 -16 22 -24 14z"/>
<path d="M1447 3484 c-11 -11 -8 -92 4 -99 15 -10 19 -3 21 44 1 41 -11 68
-25 55z"/>
<path d="M8331 3464 c-26 -27 -18 -34 35 -34 46 0 59 10 50 38 -8 24 -60 22
-85 -4z"/>
<path d="M8467 3454 c-6 -6 58 -74 69 -74 2 0 4 11 4 24 0 18 -9 29 -32 40
-36 19 -33 18 -41 10z"/>
<path d="M6326 3425 c-4 -10 -20 -15 -50 -15 -31 0 -48 -5 -54 -16 -5 -9 -15
-15 -22 -12 -17 5 -130 -109 -124 -126 3 -7 -2 -16 -10 -19 -9 -4 -16 -15 -16
-26 0 -11 -7 -24 -17 -29 -12 -7 -15 -18 -10 -45 4 -25 1 -39 -9 -48 -12 -10
-14 -131 -14 -815 l0 -804 -25 0 c-20 0 -25 -5 -25 -25 0 -23 4 -25 44 -25 26
0 48 -6 56 -15 10 -12 39 -15 141 -15 74 0 130 -4 134 -10 4 -6 60 -10 134
-10 103 0 131 -3 141 -15 10 -13 33 -15 114 -13 96 3 101 4 104 26 3 19 -1 22
-32 22 -33 0 -36 3 -36 28 0 15 0 336 0 714 0 598 -1 692 -15 718 -9 17 -15
55 -15 95 0 37 -4 65 -10 65 -5 0 -10 8 -10 19 0 10 -7 24 -15 31 -8 7 -15 23
-15 36 0 13 -4 24 -10 24 -5 0 -10 6 -10 14 0 7 -7 19 -15 26 -8 7 -15 21 -15
31 0 11 -4 19 -10 19 -5 0 -10 8 -10 18 0 20 -109 132 -129 132 -17 0 -46 30
-46 49 0 27 -89 41 -99 16z m23 -171 c12 -28 65 -34 75 -9 3 8 12 15 20 15 18
0 156 -133 156 -150 0 -6 11 -26 25 -44 14 -18 25 -43 25 -54 0 -12 5 -22 10
-22 6 0 10 -22 10 -49 0 -34 4 -51 15 -55 22 -8 21 -85 -1 -93 -9 -3 -25 -1
-35 5 -10 7 -41 12 -69 12 -36 0 -52 4 -56 15 -5 11 -23 15 -74 15 -38 0 -72
5 -75 10 -3 6 -35 10 -69 10 -44 0 -67 5 -76 15 -8 10 -31 15 -66 15 -29 0
-56 5 -59 10 -3 6 -17 10 -31 10 -22 0 -24 4 -24 49 0 34 5 51 15 55 10 4 13
14 9 35 -5 23 -2 32 10 37 9 3 16 14 16 24 0 10 7 23 15 30 8 7 12 16 10 20
-8 13 84 100 105 100 10 0 20 6 23 13 3 8 18 11 45 9 30 -3 42 -10 51 -28z
m-153 -479 c5 -12 24 -15 84 -15 44 0 82 -4 85 -10 3 -5 44 -10 91 -10 66 0
86 -3 90 -15 4 -10 20 -15 48 -15 82 -1 76 43 76 -592 0 -414 -3 -567 -12
-576 -8 -8 -8 -15 2 -27 10 -12 10 -18 -1 -31 -10 -12 -10 -20 -1 -35 7 -11
11 -23 8 -27 -7 -11 -219 -2 -230 9 -6 5 -58 9 -117 9 -82 0 -109 3 -119 15
-8 9 -30 15 -56 15 l-44 0 0 660 0 660 45 0 c31 0 47 -5 51 -15z"/>
<path d="M6150 2115 l0 -575 44 0 c25 0 48 -5 51 -10 4 -6 53 -10 115 -10 88
0 111 -3 118 -16 6 -11 22 -14 63 -12 l54 3 3 558 c2 540 2 557 -17 557 -10 0
-24 7 -31 15 -8 10 -31 15 -66 15 -29 0 -56 5 -59 10 -3 6 -39 10 -78 10 -47
1 -79 6 -91 15 -11 8 -39 15 -63 15 l-43 0 0 -575z"/>
<path d="M8352 3381 c-10 -6 -10 -11 3 -21 13 -10 16 -30 14 -85 -1 -52 2 -79
14 -95 25 -36 35 -15 35 77 0 75 -3 90 -22 110 -24 25 -26 26 -44 14z"/>
<path d="M8481 3336 c-20 -37 -18 -146 4 -179 21 -33 33 -26 38 25 2 21 7 41
10 45 14 14 7 93 -10 113 -22 26 -27 25 -42 -4z"/>
<path d="M7795 3180 c-4 -7 -3 -16 3 -22 14 -14 45 -2 40 15 -6 16 -34 21 -43
7z"/>
<path d="M10087 3183 c-12 -11 -8 -23 8 -23 8 0 15 7 15 15 0 16 -12 20 -23 8z"/>
<path d="M1910 3135 c0 -17 22 -29 41 -23 8 3 6 9 -5 21 -22 21 -36 22 -36 2z"/>
<path d="M7783 3141 c-34 -3 -68 -12 -75 -18 -6 -7 -21 -13 -33 -13 -24 0 -90
-63 -81 -78 3 -5 -8 -20 -24 -32 -23 -17 -30 -31 -30 -56 0 -19 -4 -34 -10
-34 -5 0 -10 -20 -10 -44 0 -27 -6 -48 -15 -56 -13 -11 -15 -101 -15 -721 1
-699 0 -710 -20 -731 -25 -27 -25 -38 -1 -38 10 0 24 -7 31 -15 10 -12 48 -15
226 -15 136 0 214 -4 214 -10 0 -6 46 -10 117 -10 93 0 120 -3 134 -16 27 -24
49 -11 49 30 0 33 -2 35 -35 38 l-36 3 1 671 c0 577 -2 676 -15 707 -8 20 -15
52 -15 71 0 21 -6 36 -15 40 -9 3 -12 12 -8 22 4 10 0 20 -10 26 -10 5 -17 15
-17 22 0 17 -18 51 -47 93 -13 17 -23 35 -23 39 0 12 -63 64 -77 64 -6 0 -22
13 -35 29 -30 35 -46 39 -125 32z m19 -126 c14 -18 29 -25 54 -25 19 0 34 5
34 10 0 6 7 10 15 10 8 0 15 -4 15 -10 0 -5 7 -10 16 -10 20 0 84 -63 84 -83
0 -9 11 -24 25 -35 14 -11 25 -29 25 -41 0 -12 5 -21 10 -21 6 0 10 -15 10
-34 0 -21 6 -36 15 -40 10 -4 15 -20 15 -50 0 -25 5 -48 10 -51 6 -3 10 -22
10 -41 l0 -34 -60 0 c-45 0 -62 4 -66 15 -5 12 -25 15 -89 15 -46 0 -87 5 -90
10 -3 6 -30 10 -59 10 -35 0 -58 5 -66 15 -8 10 -31 15 -71 15 -79 0 -99 17
-99 86 0 37 4 54 15 58 9 3 15 18 15 40 0 21 6 36 15 40 8 3 12 11 10 19 -3 7
8 25 24 41 16 16 27 34 24 42 -3 8 3 16 13 20 11 3 27 10 36 15 10 5 24 9 32
9 8 0 16 7 20 15 8 23 36 18 58 -10z m-167 -465 c3 -5 33 -10 66 -10 44 0 61
-4 65 -15 5 -11 22 -15 63 -15 31 0 61 -4 67 -10 5 -5 50 -10 99 -12 l90 -3 3
-582 2 -583 -58 0 c-33 0 -63 5 -70 12 -10 10 -15 10 -21 -1 -6 -9 -11 -10
-15 -2 -5 7 -57 11 -151 11 l-143 0 -31 31 -31 31 0 519 c0 339 3 519 10 519
6 0 10 16 10 35 0 19 -4 35 -10 35 -16 0 -12 22 8 36 21 16 39 18 47 4z"/>
<path d="M7635 2424 c-11 -17 -14 -109 -15 -499 -1 -447 0 -478 17 -491 13 -9
52 -13 134 -14 85 0 120 -4 135 -15 11 -9 42 -14 77 -15 l57 0 0 500 0 500
-25 0 c-14 0 -25 5 -25 10 0 6 -32 10 -77 10 -51 0 -82 5 -92 14 -10 8 -46 15
-94 18 -70 3 -79 1 -92 -18z"/>
<path d="M10010 3087 c0 -34 29 -57 58 -46 12 4 22 12 22 16 -1 19 -19 35 -33
30 -9 -3 -18 1 -21 9 -9 22 -26 16 -26 -9z"/>
<path d="M1946 3093 c-9 -10 -7 -61 3 -67 10 -7 21 16 21 44 0 20 -13 33 -24
23z"/>
<path d="M2774 3063 c-19 -24 -26 -26 -87 -24 -53 2 -68 -1 -73 -13 -4 -10
-18 -16 -39 -16 -20 0 -35 -6 -39 -15 -3 -8 -11 -12 -19 -9 -8 3 -20 -2 -27
-11 -7 -8 -19 -15 -27 -15 -18 0 -173 -156 -173 -174 0 -7 -6 -19 -14 -26 -8
-6 -12 -18 -9 -26 3 -7 -2 -17 -11 -20 -9 -4 -16 -18 -16 -34 0 -15 -7 -33
-15 -40 -13 -11 -15 -155 -15 -1157 0 -764 4 -1151 10 -1164 9 -16 22 -19 90
-19 l80 0 0 995 0 995 95 0 c76 0 97 -3 101 -15 5 -12 26 -15 99 -15 52 0 97
-4 100 -10 4 -6 54 -10 116 -10 90 0 111 -3 116 -16 5 -12 25 -15 120 -13 71
1 118 -3 122 -9 3 -6 22 -12 41 -14 l35 -3 2 -665 c1 -447 -1 -668 -8 -677 -6
-6 -8 -17 -4 -24 13 -21 12 -89 -2 -101 -10 -8 -11 -14 -1 -25 6 -8 11 -29 11
-48 0 -19 -5 -40 -11 -48 -10 -11 -9 -17 3 -27 8 -7 13 -15 11 -19 -2 -3 -7
-48 -11 -99 -3 -52 -8 -99 -11 -106 -9 -23 30 -44 85 -47 41 -2 56 1 59 11 2
8 6 22 10 30 7 18 6 -44 16 1122 7 833 6 919 -8 924 -12 5 -16 21 -16 63 -1
31 -7 67 -14 80 -8 14 -12 30 -9 37 2 6 -3 14 -11 17 -9 4 -16 17 -16 31 0 13
-6 26 -12 28 -7 3 -13 13 -13 24 0 12 -8 20 -23 22 -18 3 -21 6 -12 17 9 11
-8 34 -81 109 -51 53 -100 96 -110 96 -9 0 -19 7 -23 15 -3 8 -16 15 -29 15
-13 0 -34 11 -47 25 -12 13 -27 22 -32 19 -4 -3 -11 2 -14 10 -3 9 -17 16 -29
16 -16 0 -33 13 -52 40 -27 38 -30 40 -83 39 -47 0 -58 -4 -76 -26z m4 -178
c13 -17 30 -25 50 -25 17 0 32 -5 34 -12 5 -15 67 -16 73 0 5 15 91 17 100 2
3 -5 14 -10 24 -10 10 0 27 -11 37 -25 10 -14 26 -25 35 -25 19 0 172 -153
178 -178 2 -9 10 -22 19 -28 8 -6 12 -16 8 -23 -4 -6 0 -14 8 -17 10 -4 16
-18 16 -39 0 -18 7 -38 16 -46 9 -7 13 -21 10 -34 -3 -11 1 -33 9 -49 21 -40
19 -99 -4 -120 -12 -11 -21 -14 -26 -7 -3 6 -35 11 -69 11 -44 0 -67 5 -76 15
-9 11 -35 15 -106 15 -51 0 -96 4 -99 10 -3 6 -49 10 -103 10 -68 0 -104 4
-118 14 -21 15 -124 24 -330 29 -94 2 -104 4 -126 27 -20 20 -25 36 -27 87 -2
50 1 63 16 71 14 8 15 13 5 25 -9 10 -10 17 -2 22 5 3 10 17 10 30 0 12 7 26
16 29 8 3 12 10 9 16 -8 13 157 180 178 180 9 0 19 5 22 10 3 6 14 10 24 10
10 0 24 7 31 15 7 8 27 15 44 15 17 0 38 5 46 10 25 16 48 11 68 -15z"/>
<path d="M10134 3045 c-9 -23 5 -35 42 -35 35 0 44 16 22 38 -17 17 -57 15
-64 -3z"/>
<path d="M1947 2990 c-3 -11 -1 -23 4 -26 5 -3 9 6 9 20 0 31 -6 34 -13 6z"/>
<path d="M10010 3002 c0 -4 6 -14 12 -20 10 -10 10 -15 -2 -23 -13 -8 -13 -11
3 -23 14 -11 16 -22 11 -52 -5 -32 -2 -43 14 -58 12 -10 25 -15 31 -12 13 8 6
69 -9 74 -15 5 -12 33 5 52 19 21 10 50 -15 50 -11 0 -22 5 -25 10 -7 12 -25
13 -25 2z"/>
<path d="M10137 2953 c-4 -3 -7 -42 -7 -85 0 -63 3 -78 15 -78 27 0 30 4 32
50 1 25 5 62 8 83 5 34 3 37 -18 37 -13 0 -27 -3 -30 -7z"/>
<path d="M987 2870 c-9 -11 -17 -21 -17 -23 0 -1 30 -3 66 -5 37 -1 71 -5 75
-8 16 -10 10 -63 -8 -73 -17 -10 -17 -12 1 -26 11 -8 23 -15 27 -15 11 0 21
61 17 101 l-3 34 73 3 c55 2 72 6 72 17 0 13 -24 15 -143 15 -130 0 -144 -2
-160 -20z"/>
<path d="M8987 2876 c-4 -10 -19 -16 -37 -16 -16 0 -30 -4 -30 -10 0 -5 -6
-10 -14 -10 -8 0 -16 -7 -20 -15 -3 -8 -15 -15 -26 -15 -13 0 -20 -7 -20 -19
0 -11 -11 -28 -25 -39 -17 -14 -25 -30 -25 -50 0 -18 -7 -35 -17 -40 -10 -6
-14 -16 -10 -26 4 -10 1 -19 -8 -22 -13 -5 -15 -94 -15 -682 0 -609 -2 -677
-16 -693 -32 -35 -11 -49 73 -50 106 -2 110 -3 119 -12 4 -4 43 -7 86 -7 55 0
86 -5 103 -16 18 -12 43 -15 99 -12 54 2 77 -1 81 -9 9 -26 25 -12 25 22 0 19
-4 35 -10 35 -7 0 -10 208 -10 603 -1 513 -3 605 -15 621 -8 11 -15 41 -15 67
0 26 -4 51 -10 54 -5 3 -10 21 -10 40 0 20 -6 35 -15 39 -8 3 -15 15 -15 26 0
11 -4 20 -10 20 -5 0 -10 9 -10 20 0 12 -11 31 -25 44 -14 13 -25 29 -25 35 0
18 -65 81 -83 81 -9 0 -17 10 -19 23 -4 26 -42 36 -51 13z m17 -141 c21 -28
36 -32 36 -10 0 28 35 15 78 -29 23 -25 42 -52 42 -60 0 -9 7 -19 15 -22 8 -4
15 -17 15 -30 0 -13 5 -24 10 -24 6 0 10 -15 10 -34 0 -21 6 -36 16 -40 12 -4
14 -19 12 -63 l-3 -58 -44 -3 c-32 -2 -47 1 -53 12 -7 12 -25 16 -68 16 -32 0
-62 5 -65 10 -3 6 -39 10 -79 10 -53 0 -77 4 -86 15 -7 8 -21 15 -31 15 -17 0
-19 8 -19 74 0 56 4 75 15 80 8 3 12 12 9 21 -4 8 1 17 10 21 9 3 16 14 16 24
0 18 40 64 76 87 32 20 68 15 88 -12z m-18 -410 c5 -12 25 -15 89 -15 46 0 87
-4 90 -10 3 -5 13 -10 21 -10 18 0 54 -36 54 -53 0 -7 -6 -19 -12 -25 -10 -10
-10 -15 2 -22 13 -8 12 -11 -5 -24 -17 -13 -18 -17 -5 -25 12 -8 14 -36 12
-158 -2 -81 -5 -170 -7 -198 -2 -27 -6 -142 -10 -253 -6 -190 -5 -205 12 -217
17 -13 17 -14 1 -20 -14 -6 -18 -19 -18 -56 l0 -49 -45 0 c-31 0 -47 5 -51 15
-5 12 -28 15 -124 15 -86 0 -125 4 -148 16 l-32 15 0 538 c0 296 3 541 7 544
3 4 42 7 85 7 61 0 80 -3 84 -15z"/>
<path d="M8860 2241 c-7 -18 -9 -168 -7 -458 2 -248 -1 -437 -6 -442 -5 -5 -1
-17 9 -30 16 -18 29 -21 106 -21 48 0 90 -4 93 -10 3 -5 32 -10 65 -10 61 0
83 17 59 46 -6 7 -8 17 -5 23 3 5 8 197 11 426 5 392 5 418 -12 431 -10 7 -30
14 -44 14 -15 0 -32 7 -39 15 -9 11 -33 15 -86 15 -41 0 -74 4 -74 9 0 5 -13
11 -30 13 -24 4 -31 0 -40 -21z"/>
<path d="M11180 2816 c0 -19 6 -25 33 -29 44 -7 56 8 26 32 -34 28 -59 27 -59
-3z"/>
<path d="M11307 2783 c-12 -11 25 -43 50 -43 28 0 29 4 3 30 -20 20 -41 25
-53 13z"/>
<path d="M9971 2715 c-13 -14 -29 -25 -36 -25 -7 0 -18 -7 -25 -15 -7 -8 -21
-15 -31 -15 -13 0 -19 -7 -19 -24 0 -13 -7 -26 -15 -30 -8 -3 -12 -12 -9 -21
4 -8 -1 -17 -10 -21 -9 -3 -16 -14 -16 -24 0 -10 -7 -23 -15 -30 -13 -11 -15
-96 -14 -658 0 -441 -3 -648 -10 -655 -6 -6 -11 -26 -11 -44 l0 -33 119 0 c95
0 121 -3 131 -16 11 -12 32 -15 104 -13 60 1 91 -2 94 -10 5 -16 39 -14 67 5
30 19 32 34 7 34 -11 0 -26 8 -35 18 -15 16 -17 63 -16 438 1 369 3 421 17
437 14 16 14 19 2 27 -21 13 -22 61 -3 75 15 11 15 14 1 34 -9 12 -14 31 -11
42 6 20 -20 28 -32 9 -3 -5 -19 -10 -35 -10 -16 0 -32 5 -35 10 -3 6 -26 10
-51 10 -30 0 -46 5 -50 15 -5 11 -24 15 -80 15 -41 0 -82 4 -92 9 -9 5 -25 12
-34 15 -15 5 -18 18 -18 89 0 46 3 87 7 91 4 4 8 13 9 19 3 42 18 77 33 77 9
0 31 16 50 35 39 42 62 44 91 8 20 -26 23 -27 34 -10 7 9 19 17 25 17 15 0 71
-60 71 -76 0 -6 7 -17 15 -24 8 -7 15 -21 15 -31 0 -11 5 -19 10 -19 6 0 10
-13 10 -29 0 -16 7 -34 15 -41 10 -8 15 -31 15 -71 0 -33 4 -59 10 -59 17 0
16 128 0 144 -6 6 -10 21 -10 36 0 14 -7 34 -15 44 -8 11 -15 31 -15 44 0 14
-10 33 -22 44 -13 11 -23 26 -23 33 0 8 -24 37 -53 65 -30 29 -51 58 -50 68 5
27 -34 25 -61 -3z m-57 -540 c4 -11 23 -15 81 -15 43 0 75 -4 75 -10 0 -5 24
-10 54 -10 34 0 56 -5 59 -13 7 -20 9 -846 1 -930 -5 -62 -10 -77 -23 -77 -10
0 -21 4 -27 9 -5 6 -49 11 -98 13 -53 1 -94 7 -101 14 -7 7 -32 14 -56 16
l-44 3 -2 499 c-1 275 0 503 3 508 9 14 71 9 78 -7z"/>
<path d="M9860 1671 c0 -231 3 -426 6 -435 5 -13 23 -16 97 -16 69 0 95 -4
108 -16 25 -22 77 -10 84 19 3 12 4 206 3 431 l-3 410 -55 -3 c-37 -1 -62 3
-75 13 -14 10 -43 15 -92 16 l-73 0 0 -419z"/>
<path d="M11207 2734 c-4 -4 -7 -35 -7 -68 1 -46 6 -67 21 -85 28 -35 35 -17
29 75 -4 61 -9 79 -20 82 -9 1 -19 0 -23 -4z"/>
<path d="M11300 2651 c0 -34 -4 -61 -10 -61 -15 0 -12 -19 4 -36 20 -20 36
-18 36 5 0 11 5 21 11 23 6 2 11 29 12 63 0 58 -1 60 -26 63 -27 3 -27 2 -27
-57z"/>
<path d="M10821 2515 c-13 -14 -29 -25 -37 -25 -21 0 -79 -62 -76 -81 2 -9 -4
-19 -13 -22 -10 -5 -15 -20 -15 -51 0 -25 -5 -46 -12 -48 -8 -3 -11 -152 -9
-595 2 -543 1 -592 -14 -601 -10 -5 -15 -18 -13 -28 3 -17 14 -19 98 -22 52
-2 99 -7 104 -12 6 -6 50 -10 99 -10 72 0 92 -3 102 -17 15 -20 35 -9 35 19 0
18 -2 19 -16 7 -15 -12 -16 -11 -10 9 4 13 8 241 9 508 2 431 0 487 -14 500
-10 9 -39 14 -83 14 -50 0 -68 4 -72 15 -5 12 -24 15 -85 15 -101 0 -119 13
-119 86 0 34 5 56 15 64 8 7 15 25 15 41 0 56 62 129 109 129 16 0 33 -4 36
-10 3 -5 20 -10 37 -10 33 0 57 -23 58 -53 0 -10 7 -20 15 -23 8 -4 15 -16 15
-28 0 -12 4 -26 9 -31 5 -6 11 -28 13 -49 5 -61 28 -58 28 3 0 28 -4 51 -10
51 -5 0 -10 16 -10 35 0 22 -6 38 -15 41 -8 4 -15 17 -15 30 0 14 -6 24 -15
24 -8 0 -20 10 -26 23 -7 12 -18 26 -26 30 -7 5 -10 13 -7 19 4 6 0 16 -8 22
-9 6 -17 20 -19 31 -6 29 -31 29 -58 0z m60 -491 c8 -10 25 -14 48 -13 24 2
44 -4 58 -16 22 -19 22 -19 22 -465 1 -341 -2 -450 -12 -463 -16 -23 -56 -30
-64 -12 -4 12 -26 15 -97 15 -148 0 -136 -47 -135 498 1 251 3 460 6 465 2 4
39 7 82 7 59 0 82 -4 92 -16z"/>
<path d="M10734 1955 c-2 -5 -3 -190 -2 -410 l3 -400 30 -3 c17 -2 34 -8 39
-13 6 -5 47 -9 93 -9 l83 0 -2 398 -3 397 -23 1 c-13 1 -28 6 -35 13 -6 6 -33
11 -59 11 -34 0 -50 5 -54 15 -7 17 -64 17 -70 0z"/>
<path d="M2465 2207 c-3 -6 -4 -309 -3 -672 l3 -660 344 -3 c299 -2 345 -4
355 -18 8 -10 23 -14 41 -12 l30 3 0 645 0 645 -100 3 c-55 1 -104 7 -109 12
-6 6 -69 10 -142 10 -105 0 -134 3 -144 15 -10 12 -37 15 -126 15 -63 0 -114
4 -114 9 0 15 -30 22 -35 8z"/>
<path d="M1719 2153 c0 -5 0 -51 1 -103 1 -83 -2 -100 -19 -122 -12 -14 -21
-29 -21 -32 0 -3 51 -6 113 -6 128 0 147 -9 147 -68 0 -22 5 -32 15 -32 11 0
15 12 15 45 0 52 -25 85 -64 85 -14 0 -28 5 -31 10 -3 6 -28 10 -55 10 -59 0
-74 18 -60 71 12 45 7 113 -9 133 -14 17 -31 21 -32 9z"/>
<path d="M912 1941 c-23 -17 -23 -20 -20 -181 l3 -165 100 -5 100 -5 0 -27 c1
-14 7 -33 14 -42 11 -13 11 -17 -3 -22 -21 -8 -20 -24 3 -51 26 -31 34 -29 26
7 -4 16 -3 35 2 42 4 7 8 38 8 68 0 42 4 55 15 56 8 1 23 2 33 3 9 0 17 6 17
11 0 6 -55 10 -145 10 l-145 0 0 136 c0 127 1 136 20 141 23 6 25 16 7 31 -9
8 -19 6 -35 -7z"/>
<path d="M1576 1931 c-3 -5 4 -11 17 -15 35 -9 47 -7 47 9 0 16 -55 22 -64 6z"/>
<path d="M1786 1311 c-4 -5 -3 -16 0 -25 5 -12 21 -16 70 -16 80 0 91 -14 93
-120 3 -104 11 -101 13 6 3 128 1 146 -14 155 -18 12 -155 11 -162 0z"/>
<path d="M3186 785 c-9 -25 5 -46 28 -43 30 4 29 50 -1 54 -12 2 -23 -3 -27
-11z"/>
<path d="M450 216 c0 -67 3 -85 16 -90 9 -3 112 -6 229 -6 147 0 216 -3 221
-11 5 -8 73 -10 238 -7 l231 5 3 82 3 81 -224 0 c-187 0 -227 2 -237 15 -10
13 -51 15 -246 15 l-234 0 0 -84z"/>
</g>
</svg>
