<svg xmlns="http://www.w3.org/2000/svg" viewBox="0 0 50 50" width="100px" height="100px" fill="white"><path d="M 13.888672 4 C 8.4356719 4 4 8.4366719 4 13.888672 L 4 36.111328 C 4 41.562328 8.4356719 46 13.888672 46 L 36.111328 46 C 41.563328 46 46 41.563328 46 36.111328 L 46 13.888672 C 46 8.4366719 41.564328 4 36.111328 4 L 13.888672 4 z M 31.507812 11.005859 C 31.866709 11.048057 32.351406 11.317812 32.785156 11.570312 C 33.479156 11.974312 33.984047 12.129953 33.998047 12.876953 C 34.012047 13.623953 33.153469 14.115563 32.730469 13.976562 C 32.166469 13.790563 32.304703 13.126031 31.845703 12.457031 C 31.535703 12.005031 30.833156 11.679516 31.035156 11.228516 C 31.121031 11.037641 31.292475 10.980541 31.507812 11.005859 z M 13 12 L 16.09375 15.150391 C 20.63675 12.000391 25 14.751953 25 14.751953 C 22.011 15.403953 20.260406 16.731594 19.316406 18.433594 L 22.818359 22 L 13 22 L 13 12 z M 27.794922 13.537109 C 28.399922 13.537109 28.671484 14.378719 28.646484 15.011719 C 31.092484 14.654719 35.180688 14.470344 37.429688 14.527344 C 37.491687 14.274344 37.763203 13.925609 38.158203 13.974609 C 38.646203 14.034609 38.609328 14.447016 39.111328 14.791016 C 39.541328 15.085016 40.027 15.080813 40 15.507812 C 39.967 15.999812 39.157813 15.852906 38.507812 16.128906 C 37.828812 16.416906 37.595609 16.96875 36.974609 16.96875 C 36.414609 16.96875 36.468844 16.244875 36.589844 15.921875 C 33.661844 15.668875 28.695312 16.001953 28.695312 16.001953 C 28.473312 16.853953 27.942609 17.222656 27.349609 17.222656 C 26.583609 17.222656 25.965953 17.094047 26.001953 16.623047 C 26.050953 15.985047 26.598797 16.035312 26.966797 15.195312 C 27.305797 14.421312 27.194922 13.537109 27.794922 13.537109 z M 34.873047 17.013672 C 35.096172 16.975797 35.354094 17.010313 35.558594 17.195312 C 35.839594 17.449313 36.130625 17.614609 36.390625 17.724609 C 36.680625 17.848609 36.73875 18.351484 36.21875 18.396484 C 35.74475 18.436484 34.013938 19.021719 33.335938 19.761719 C 33.557938 19.784719 33.943859 20.125031 33.505859 20.582031 C 34.025859 20.628031 35.539813 20.593734 36.007812 20.552734 C 36.153813 20.298734 36.680766 19.877219 37.259766 20.449219 C 37.434766 20.645219 37.951344 21.038141 38.152344 21.119141 C 38.394344 21.217141 38.418453 21.663969 38.064453 21.667969 C 37.483453 21.673969 33.891437 21.639797 33.148438 21.841797 C 33.142437 22.690797 32.862953 24.870781 32.001953 25.675781 C 31.593953 26.135781 31.082625 26.053047 30.765625 25.748047 C 30.327625 25.325047 29.801297 25.105109 29.279297 24.662109 C 28.841297 24.291109 29.199422 23.646469 29.732422 23.855469 C 30.075422 23.989469 31.062094 24.186922 31.496094 24.169922 C 31.641094 23.614922 31.640313 22.622656 31.570312 21.972656 C 30.763313 21.916656 28.178594 22.742625 27.558594 22.765625 C 26.938594 22.788625 26.366391 22.076266 26.150391 21.822266 C 25.934391 21.568266 25.874281 21.164703 26.488281 21.095703 C 27.102281 21.026703 30.692531 20.753328 31.394531 20.736328 C 31.407531 20.297328 31.340203 19.848375 31.283203 19.609375 C 31.189203 19.222375 31.641109 18.558734 32.412109 19.177734 C 32.582109 18.876734 33.119687 18.425812 33.429688 18.257812 C 32.692687 18.193812 31.011781 18.507031 30.425781 18.707031 C 30.125781 18.821031 29.634234 18.871781 29.365234 18.675781 C 29.096234 18.479781 28.691312 18.217563 28.445312 18.101562 C 28.199313 17.985563 28.138859 17.558578 28.630859 17.517578 C 29.364859 17.457578 32.963484 17.173625 34.396484 17.265625 C 34.460484 17.162125 34.649922 17.051547 34.873047 17.013672 z M 19.132812 25.009766 C 21.313813 25.109766 22.864766 26.658109 22.759766 28.787109 C 22.654766 30.920109 22.609047 35.863188 22.998047 37.617188 L 20.945312 37.615234 C 20.919313 37.180234 20.897047 36.941625 20.873047 36.515625 C 20.043047 37.321625 18.573219 37.963094 17.074219 37.996094 C 15.514219 38.032094 12.967 37.733422 13 34.357422 C 13.09 29.115422 18.915734 29.460703 20.677734 30.220703 L 20.689453 30.248047 C 20.693453 29.858047 20.692078 29.461078 20.705078 29.080078 C 20.791078 27.321078 19.091281 26.746234 17.113281 26.865234 C 16.457281 26.905234 15.423484 27.227281 14.896484 27.488281 L 14.691406 25.619141 C 15.980406 25.250141 17.494812 24.934766 19.132812 25.009766 z M 27.181641 28 L 37 28 L 37 38 L 33.90625 34.849609 C 29.36325 37.999609 25 35.248047 25 35.248047 C 27.989 34.596047 29.739594 33.268406 30.683594 31.566406 L 27.181641 28 z M 18.419922 31.398438 C 16.848779 31.500625 15.177734 32.225937 15.177734 34.304688 C 15.178734 35.873687 17.242094 37.301766 20.871094 35.259766 C 20.811094 34.041766 20.771859 32.868516 20.755859 31.728516 C 20.269484 31.499016 19.362607 31.337125 18.419922 31.398438 z"/></svg>